<?xml version="1.0" encoding="UTF-8"?>
<svg id="Layer_2" xmlns="http://www.w3.org/2000/svg" viewBox="0 0 152.78 171.64">
  <defs>
    <style>
      .cls-1 {
        fill: #00bca2;
      }
    </style>
  </defs>
  <g id="_레이어_1" data-name="레이어_1">
    <g>
      <path class="cls-1" d="M56.88,40.21c.37.16.59.46.67.91.08.45.12,1.06.12,1.85v8.12c0,1.21.26,2.17.79,2.88.52.71,1.18,1.25,1.97,1.61.79.37,1.63.6,2.52.71.89.11,1.71.16,2.44.16h31.13c1.21,0,2.02-.13,2.44-.39.42-.26.74-.87.95-1.81.16-.94.09-1.59-.2-1.93-.29-.34-.98-.75-2.09-1.22l-2.76-1.1c-.63-.21-1.21-.33-1.73-.35-.53-.02-1.08.04-1.65.2-1.05.32-2.56.59-4.53.83-1.97.24-3.98.35-6.03.35h-14.03c-.79,0-1.31-.13-1.58-.39-.26-.26-.39-.76-.39-1.5v-8.43l26.72-.32c1.68,0,2.89-.29,3.62-.87.74-.58,1.1-1.44,1.1-2.6v-13.95c0-.68-.11-1.21-.32-1.58-.21-.37-.42-.68-.63-.94-.32-.32-.75-.52-1.3-.63-.55-.1-1.12-.16-1.69-.16-1.94.05-3.89.11-5.83.16-1.94.05-3.86.11-5.75.16-1.94.05-3.89.09-5.83.12-1.94.03-3.86.04-5.75.04-2.05,0-4.14-.05-6.27-.16-2.13-.1-4.51-.39-7.13-.87l-.71,3.55c-.11.47,0,.97.31,1.5.32.53.79.92,1.42,1.18.47.21,1.21.3,2.21.28,1-.03,1.78-.07,2.36-.12.58,0,1.22-.01,1.93-.04.71-.03,1.38-.04,2.01-.04l22.62-.32c.47,0,.77.08.91.24.13.16.2.42.2.79v7.57c0,.47-.07.8-.2.98-.13.19-.41.28-.83.28l-27.35.47h-.24l-.16-.08-5.91-.47v2.36c0,.68.22,1.27.67,1.77.45.5,1.04.91,1.77,1.22Z"/>
      <path class="cls-1" d="M66.06,103.18c3.07,2.58,7.16,3.86,12.25,3.86,2.36,0,4.57-.33,6.62-.99,2.05-.66,3.81-1.61,5.28-2.88,1.52-1.21,2.72-2.67,3.59-4.37.87-1.71,1.3-3.61,1.3-5.71s-.42-3.83-1.26-5.52c-.84-1.68-2-3.15-3.47-4.41-1.52-1.21-3.31-2.17-5.36-2.88-2.05-.71-4.28-1.06-6.7-1.06-5.1,0-9.18,1.31-12.25,3.94-3.07,2.63-4.61,5.94-4.61,9.93s1.54,7.51,4.61,10.09ZM71.34,87.07c1.66-1.5,3.98-2.25,6.97-2.25s5.24.75,6.9,2.25c1.65,1.5,2.48,3.51,2.48,6.03s-.83,4.48-2.48,6.03c-1.65,1.55-3.95,2.32-6.9,2.32s-5.12-.77-6.86-2.32c-1.73-1.55-2.6-3.56-2.6-6.03s.83-4.53,2.48-6.03Z"/>
      <path class="cls-1" d="M128.91,84.82c13.99-5.77,23.87-19.54,23.87-35.59,0-1.6-1.29-2.89-2.89-2.89-15.47,0-28.82,9.18-34.93,22.37v-31.91C114.96,16.51,98.45,0,78.16,0h-2.88c-20.29,0-36.8,16.51-36.8,36.8v33.41c-5.77-13.99-19.54-23.87-35.59-23.87-1.6,0-2.89,1.29-2.89,2.89,0,16.05,9.88,29.83,23.87,35.59C9.88,90.59,0,104.37,0,120.41c0,1.6,1.29,2.89,2.89,2.89,16.05,0,29.83-9.88,35.59-23.87v35.41c0,20.29,16.51,36.8,36.8,36.8h2.88c20.29,0,36.8-16.51,36.8-36.8v-33.9c6.11,13.19,19.47,22.37,34.93,22.37,1.6,0,2.89-1.29,2.89-2.89,0-16.05-9.88-29.83-23.87-35.59ZM45.18,75.27s.05,0,.08,0c.6.05,1.25.08,1.93.08s1.35-.01,2.01-.04c.66-.03,1.25-.07,1.77-.12l28.05-1.02c2.63-.05,5.33-.11,8.12-.16,2.78-.05,5.44-.08,7.96-.08s4.7.03,6.7.08c2,.05,3.55.1,4.65.16.52.07,1.14.16,1.81.26v36.09c-.18-.01-.35-.02-.55-.02-.58,0-1.21.03-1.89.08-.68.05-1.45.11-2.29.16-1.89.21-3.69.38-5.4.51-1.71.13-3.48.22-5.32.27-1.84.11-3.86.21-6.07.32-2.21.11-4.73.18-7.57.24-2.63.11-5.48.17-8.55.2-3.07.03-6.5.04-10.28.04h-2.88c-1.39,0-2.93-.05-4.61-.16-1.73-.05-3.44-.14-5.12-.28-.95-.07-1.8-.17-2.56-.29v-36.33ZM146.86,52.26c-1.28,13.93-11.35,25.33-24.58,28.67l10.75-10.75c1.13-1.13,1.13-2.96,0-4.08-1.13-1.13-2.96-1.13-4.08,0l-10.75,10.75c3.34-13.23,14.74-23.3,28.67-24.58ZM75.28,6.7h2.88c16.6,0,30.1,13.5,30.1,30.1v30.54c-.18-.01-.35-.02-.55-.02-.53,0-1.14.04-1.85.12-.71.08-1.49.15-2.32.2-1.73.21-3.39.38-4.96.51-1.58.13-3.21.23-4.89.28-1.68.11-3.48.2-5.4.28-1.92.08-4.09.15-6.5.2v-7.33c0-.47-.15-1.05-.43-1.73-.29-.68-1.12-1.1-2.48-1.26l-8.04-.79-.24,2.36c-.11.68.01,1.25.35,1.69.34.45.75.72,1.22.83,1,.32,1.62.68,1.85,1.1.24.42.35,1.16.35,2.21v3.15c-2.05.05-4.23.08-6.54.08h-10.36c-1.39,0-2.93-.05-4.61-.16-1.73-.05-3.44-.14-5.12-.28-.95-.07-1.8-.17-2.56-.29v-31.69c0-16.6,13.5-30.1,30.1-30.1ZM5.92,52.26c13.93,1.29,25.33,11.35,28.67,24.58l-10.75-10.75c-1.13-1.13-2.96-1.13-4.08,0-1.13,1.13-1.13,2.96,0,4.08l10.75,10.75c-13.24-3.34-23.3-14.74-24.58-28.67ZM5.92,117.39c1.28-13.93,11.35-25.33,24.58-28.67l-10.74,10.74c-1.13,1.13-1.13,2.96,0,4.08.56.56,1.3.85,2.04.85s1.48-.28,2.04-.85l10.75-10.75c-3.34,13.23-14.74,23.3-28.67,24.58ZM78.16,164.94h-2.88c-16.6,0-30.1-13.5-30.1-30.1v-16.46s.05,0,.08,0c.6.05,1.25.08,1.93.08s1.35-.01,2.01-.04c.66-.03,1.25-.07,1.77-.12l23.41-.87c.26.42.47.93.63,1.54.16.6.24,1.38.24,2.33v7.41l-10.24.16-1.89-2.13c-.42-.42-.98-.66-1.69-.71-.71-.05-1.51.18-2.4.71-.95.58-1.58,1.12-1.89,1.62-.32.5-.34.98-.08,1.46l1.42,2.6,1.5,17.18.31,2.52c.05.42.2.81.43,1.18.24.37.46.63.67.79.79.63,1.69.87,2.72.71,1.02-.16,1.82-.55,2.4-1.18.32-.32.52-.67.63-1.06.1-.39.16-.91.16-1.54l28.53-.08c1.26,0,2.07-.3,2.44-.91.37-.6.55-1.38.55-2.32v-16.79c0-.58-.05-1.02-.16-1.34-.11-.32-.24-.55-.39-.71-.26-.16-.62-.28-1.06-.35-.45-.08-.88-.12-1.3-.12l-14.89.24c.42-.73.8-1.5,1.14-2.28.34-.79.51-1.5.51-2.13v-3.78c0-.52-.03-1.06-.08-1.61-.05-.55-.24-1.09-.55-1.62,2.42-.05,4.87-.09,7.37-.12,2.49-.03,4.85-.04,7.05-.04s4.11.03,5.87.08c1.76.05,3.14.11,4.14.16.52.07,1.14.16,1.81.27v17.29c0,16.6-13.5,30.1-30.1,30.1ZM89.67,134.15c.79,0,1.26.08,1.42.24.16.16.24.58.24,1.26v7.49c0,.74-.15,1.25-.43,1.54-.29.29-.72.43-1.3.43l-22.7.32-.63-9.22c-.05-.26-.08-.5-.08-.71s.05-.39.16-.55c.1-.16.26-.29.47-.39.21-.1.55-.16,1.02-.16l21.83-.24ZM118.2,92.81l10.75,10.75c.56.56,1.3.85,2.04.85s1.48-.28,2.04-.85c1.13-1.13,1.13-2.96,0-4.08l-10.74-10.74c13.24,3.34,23.3,14.74,24.58,28.67-13.93-1.29-25.33-11.35-28.67-24.58Z"/>
    </g>
  </g>
</svg>