<svg xmlns="http://www.w3.org/2000/svg" width="430" height="430" fill="none" viewBox="0 0 430 430"><path fill="#ebe6ef" d="M90 95h260v273.53c0 11.046-8.954 20-20 20H110c-11.046 0-20-8.954-20-20z"/><path fill="#ebe6ef" d="M120 100H90v268.53c0 11.046 8.954 20 20 20h30c-11.046 0-20-8.954-20-20z" opacity=".5" style="mix-blend-mode:multiply"/><path stroke="#99e4da" stroke-linecap="round" stroke-linejoin="round" stroke-miterlimit="10" stroke-width="7" d="M140 180h160m-160 50h160m0 50h-53.333"/><path fill="#99e4da" d="M90 105h260V58a3 3 0 0 0-3-3H93a3 3 0 0 0-3 3z"/><path fill="#99e4da" d="M120 105H90V58a3 3 0 0 1 3-3h27z" opacity=".5" style="mix-blend-mode:multiply"/><path stroke="#99e4da" stroke-linecap="round" stroke-linejoin="round" stroke-width="7" d="M150 35v40m70-40v40m70-40v40"/><path fill="#99e4da" d="M194.92 348.432H74.93c-11.073 0-20.05 8.977-20.05 20.05s8.977 20.05 20.05 20.05h119.99c11.073 0 20.05-8.977 20.05-20.05s-8.977-20.05-20.05-20.05"/><path fill="#99e4da" d="M74.93 348.432h20c-11.073 0-20.05 8.977-20.05 20.05s8.977 20.05 20.05 20.05h-20c-11.073 0-20.05-8.977-20.05-20.05s8.977-20.05 20.05-20.05" opacity=".4" style="mix-blend-mode:multiply"/><path fill="#99e4da" d="M208.47 308.402H88.48c-11.073 0-20.05 8.977-20.05 20.05s8.977 20.05 20.05 20.05h119.99c11.073 0 20.05-8.977 20.05-20.05s-8.977-20.05-20.05-20.05"/><path fill="#99e4da" d="M208.47 308.402H88.48c-11.073 0-20.05 8.977-20.05 20.05s8.977 20.05 20.05 20.05h119.99c11.073 0 20.05-8.977 20.05-20.05s-8.977-20.05-20.05-20.05" opacity=".5" style="mix-blend-mode:multiply"/><path fill="#99e4da" d="M88.48 308.402h20c-11.073 0-20.05 8.977-20.05 20.05s8.977 20.05 20.05 20.05h-20c-11.073 0-20.05-8.977-20.05-20.05s8.977-20.05 20.05-20.05" opacity=".4" style="mix-blend-mode:multiply"/><path fill="#99e4da" d="M194.92 268.372H74.93c-11.073 0-20.05 8.977-20.05 20.05s8.977 20.05 20.05 20.05h119.99c11.073 0 20.05-8.977 20.05-20.05s-8.977-20.05-20.05-20.05"/><path fill="#99e4da" d="M74.93 268.372h20c-11.073 0-20.05 8.977-20.05 20.05s8.977 20.05 20.05 20.05h-20c-11.073 0-20.05-8.977-20.05-20.05s8.977-20.05 20.05-20.05" opacity=".5" style="mix-blend-mode:multiply"/></svg>