<svg xmlns="http://www.w3.org/2000/svg" width="430" height="430" fill="none" viewBox="0 0 430 430"><path fill="#ebe6ef" d="M308.4 122.16v237.01c0 1.66-1.34 3-3 3l-220.83.1c-1.66 0-3-1.34-3-3V31.76c0-1.66 1.34-3 3-3H215"/><path fill="#ebe6ef" d="M218 122.16h90.4L215 28.76v90.4c0 1.66 1.34 3 3 3" style="mix-blend-mode:multiply"/><path fill="#2ca58d" d="M268.381 162.13h-146.78v40.03h146.78z"/><path stroke="#99e4da" stroke-linecap="round" stroke-linejoin="round" stroke-width="7" d="M268.381 202.16h-146.78v120.09h146.78zm-73.401 0v120.09m-73.379-80.06h146.77m-146.77 40h146.77m.01-120.06h-146.78v40.03h146.78zm-73.401 40.03v-40.03"/><path fill="#00bca2" d="M341.77 228.84h-93.43c-11.046 0-20 8.954-20 20v133.64c0 11.046 8.954 20 20 20h93.43c11.046 0 20-8.954 20-20V248.84c0-11.046-8.954-20-20-20"/><path fill="#ebe6ef" d="M333.58 255.53h-77.04a7.51 7.51 0 0 0-7.51 7.51v11.67a7.51 7.51 0 0 0 7.51 7.51h77.04a7.51 7.51 0 0 0 7.51-7.51v-11.67a7.51 7.51 0 0 0-7.51-7.51"/><path fill="#99e4da" d="M266.12 302.9h-11.09a6 6 0 0 0-6 6v6a6 6 0 0 0 6 6h11.09a6 6 0 0 0 6-6v-6a6 6 0 0 0-6-6m68.97 0H324a6 6 0 0 0-6 6v6a6 6 0 0 0 6 6h11.09a6 6 0 0 0 6-6v-6a6 6 0 0 0-6-6m-34.489 0h-11.09a6 6 0 0 0-6 6v6a6 6 0 0 0 6 6h11.09a6 6 0 0 0 6-6v-6a6 6 0 0 0-6-6m-34.481 30.29h-11.09a6 6 0 0 0-6 6v6a6 6 0 0 0 6 6h11.09a6 6 0 0 0 6-6v-6a6 6 0 0 0-6-6m68.97 0H324a6 6 0 0 0-6 6v6a6 6 0 0 0 6 6h11.09a6 6 0 0 0 6-6v-6a6 6 0 0 0-6-6m-34.489 0h-11.09a6 6 0 0 0-6 6v6a6 6 0 0 0 6 6h11.09a6 6 0 0 0 6-6v-6a6 6 0 0 0-6-6m-34.481 30.28h-11.09a6 6 0 0 0-6 6v6a6 6 0 0 0 6 6h11.09a6 6 0 0 0 6-6v-6a6 6 0 0 0-6-6m68.97 0H324a6 6 0 0 0-6 6v6a6 6 0 0 0 6 6h11.09a6 6 0 0 0 6-6v-6a6 6 0 0 0-6-6m-34.489 0h-11.09a6 6 0 0 0-6 6v6a6 6 0 0 0 6 6h11.09a6 6 0 0 0 6-6v-6a6 6 0 0 0-6-6"/><path fill="#00bca2" d="M268.851 402.48h-20.5c-11 0-20-9-20-20V248.84c0-11 9-20 20-20h20.5c-11 0-20 9-20 20v133.64c0 11 9 20 20 20" opacity=".51" style="mix-blend-mode:multiply"/><path fill="#ebe6ef" d="M270.79 282.22h-14.25c-4.13 0-7.5-3.38-7.5-7.51v-11.67c0-4.13 3.37-7.51 7.5-7.51h14.25c-4.13 0-7.5 3.38-7.5 7.51v11.67c0 4.13 3.37 7.51 7.5 7.51" opacity=".5" style="mix-blend-mode:multiply"/></svg>