<svg xmlns="http://www.w3.org/2000/svg" width="430" height="430" fill="none" viewBox="0 0 430 430"><path fill="#00bca2" d="m63.71 219.32 68.78-.18-.18 129.76a36 36 0 1 1-72 0l.38-126.59a3 3 0 0 1 1.868-2.768 3 3 0 0 1 1.152-.222"/><path fill="#ebe6ef" d="m366 46.38-231.2-.26a3 3 0 0 0-3 3V348.9a36 36 0 0 1-36 36h237a36 36 0 0 0 36-36l.2-299.52a3 3 0 0 0-3-3"/><path fill="#ebe6ef" d="M149.34 46.38v302.51a36 36 0 0 1-36 36H95.8a36 36 0 0 0 36-36V49.16a3 3 0 0 1 3.05-3z" opacity=".5" style="mix-blend-mode:multiply"/><path fill="#ebe6ef" d="M224.41 46.38h-.18v-.26zm-200.63-.26.52.26h-.52zm237.18.26h-.18v-.26z"/><path stroke="#00bca2" stroke-linecap="round" stroke-linejoin="round" stroke-width="7" d="M169.83 92.8h165.56m-165.56 160h165.56m-165.56 40h165.56m-165.56 40h165.56m-165.56-200 62.56-.17m-62.56 40.17 62.56-.17m-62.56 40.17 62.56-.17"/><path fill="#99e4da" d="M338.83 133.87a3.51 3.51 0 0 0-3.49-3.5l-62.57-.1a3.5 3.5 0 0 0-2.479 1.029 3.5 3.5 0 0 0-1.021 2.481l.06 78.32a3.5 3.5 0 0 0 3.5 3.5h62.62a3.5 3.5 0 0 0 2.48-1 3.46 3.46 0 0 0 1-2.48z"/></svg>