<svg xmlns="http://www.w3.org/2000/svg" width="430" height="430" fill="none" viewBox="0 0 430 430"><path fill="#ccf2ec" d="M379.212 93.7c0 21.399-17.4 38.799-38.8 38.799h-1.4v203.8c0 21.4-17.4 38.8-38.8 38.8h-216.2c-21.4 0-38.8-17.3-38.8-38.8 0-21.4 17.4-38.8 38.8-38.8h1.4v-203.8c0-21.4 17.4-38.8 38.8-38.8h216.1c21.5 0 38.9 17.4 38.9 38.8"/><path fill="#ccf2ec" d="M110.412 93.7v203.799h-25v-203.8c0-21.4 17.4-38.8 38.8-38.8h25c-21.4 0-38.8 17.4-38.8 38.8" opacity=".3" style="mix-blend-mode:multiply"/><path fill="#ccf2ec" d="M339.612 132.499h-195.6c-3.1 0-4.2-4.1-1.5-5.6 12.2-6.6 20.5-18.4 20.5-33.2 0-21.4-17.3-38.8-38.8-38.8h216.1c21.2 0 38.4 17 38.8 38.1.5 21.7-17.8 39.5-39.5 39.5M84.812 297.5h195.4c3.1 0 4.2 4.1 1.5 5.6-12.2 6.6-20.4 18.4-20.4 33.2 0 21.4 17.4 38.8 38.8 38.8h-216.1c-21.2 0-38.4-17-38.8-38.1-.4-21.7 17.8-39.5 39.6-39.5" opacity=".5" style="mix-blend-mode:multiply"/><path stroke="#3A3347" stroke-linecap="round" stroke-linejoin="round" stroke-miterlimit="10" stroke-width="7" d="M218.612 174.6h40.3m-120.1 0h53.5m-53.5 40.1h120.1m-120.1 40h67.3"/><path fill="#ebe6ef" d="M336.412 210.1c-13.1 8.8-21.1 13.6-34 18.4-1.3.5-2.8 0-3.6-1.1l-3-4.5c-1.1-1.7-3.7-1.8-4.9-.1l-9 12c-.4.5-1 .9-1.7 1.1-20.3 5.3-39.8 6.2-56.5 2.7 5.8-32.2 30.7-67.7 69-93.4 11.6-7.8 23.6-14.1 35.6-18.9 1.4-.6 3.1 0 3.8 1.4l3.2 6.1c1 1.9 3.7 2.2 5 .4l11.5-14.9c.4-.6 1-.9 1.7-1.1 17.4-4 34-4.7 48.7-2.1 1.7.3 2.8 1.9 2.4 3.6-6.7 31.5-31.2 65.6-68.2 90.4"/><path fill="#ebe6ef" d="M404.712 119.799c-1.2 5.5-2.9 11.1-5.2 16.7-14.8-2.7-31.7-2.1-49.3 2-.7.2-1.3.5-1.7 1.1l-11.5 14.9c-1.3 1.7-4 1.5-5-.4l-3.2-6.1c-.7-1.4-2.3-2-3.8-1.4-12 4.8-24 11.1-35.6 18.9-30.6 20.5-52.6 47.3-63.2 73.7-.8-.1-1.6-.3-2.4-.5 5.8-32.2 30.7-67.7 69-93.4 11.6-7.8 23.6-14.1 35.6-18.9 1.4-.6 3.1 0 3.8 1.4l3.2 6.1c1 1.9 3.7 2.2 5 .4l11.5-14.9c.4-.6 1-.9 1.7-1.1 17.4-4 34-4.7 48.7-2.1 1.7.3 2.8 1.9 2.4 3.6" opacity=".5" style="mix-blend-mode:multiply"/><path stroke="#00bca2" stroke-linecap="round" stroke-linejoin="round" stroke-miterlimit="10" stroke-width="7" d="M206.112 254.7s45.4-45.3 117.8-83.2"/></svg>