<svg xmlns="http://www.w3.org/2000/svg" width="430" height="430" fill="none" viewBox="0 0 430 430"><path fill="#ebe6ef" d="M57 376.2h316a3 3 0 0 0 3-3V133.801H54V373.2a3 3 0 0 0 3 3"/><path fill="#ebe6ef" d="M84 376.2H57a3 3 0 0 1-3-3V133.801h30z" opacity=".5" style="mix-blend-mode:multiply"/><path fill="#99e4da" d="M86.2 56.8v40.6h43.7V56.8a3 3 0 0 0-3-3H89.2a3 3 0 0 0-3 3m213.9 0v40.6h43.7V56.8a3 3 0 0 0-3-3h-37.7a3 3 0 0 0-3 3"/><path fill="#99e4da" d="M86.2 56.8v40.6h21.85V53.8H89.2a3 3 0 0 0-3 3m213.9 0v40.6h21.85V53.8H303.1a3 3 0 0 0-3 3" opacity=".5" style="mix-blend-mode:multiply"/><path fill="#00bca2" d="M54 139.501h322v-44.1a3 3 0 0 0-3-3H57a3 3 0 0 0-3 3z"/><path fill="#00bca2" d="M84 139.501H54v-44.1a3 3 0 0 1 3-3h27z" opacity=".5" style="mix-blend-mode:multiply"/><path stroke="#99e4da" stroke-linecap="round" stroke-linejoin="round" stroke-width="7" d="M286.451 305c-.502-5.053-4.766-9-9.951-9H264c-5.523 0-10 4.477-10 10v25c0 5.523 4.477 10 10 10h12.5c5.185 0 9.449-3.947 9.951-9M142 296h17.5c8.284 0 15 6.716 15 15v15c0 8.284-6.716 15-15 15H142zm86 0h-27.5v45H228m-4.01-22.494-23.49-.006M233 192.375 260.018 174v84m-24.316 0h48.631M147 193.493C147 183.28 155.28 175 165.493 175h16.182c10.214 0 18.493 8.28 18.493 18.493v4.624c0 10.213-8.279 18.493-18.493 18.493h-21.961M147 239.727c0 10.213 8.28 18.493 18.493 18.493h18.494c10.213 0 18.493-8.28 18.493-18.493v-4.624c0-10.213-8.28-18.493-18.493-18.493"/></svg>