<svg xmlns="http://www.w3.org/2000/svg" width="430" height="430" fill="none" viewBox="0 0 430 430"><path fill="#ebe6ef" d="M281.42 54.88H60.58a3 3 0 0 0-3 3v314.24a3 3 0 0 0 3 3h220.84a3 3 0 0 0 3-3V57.88a3 3 0 0 0-3-3"/><path stroke="#99e4da" stroke-linecap="round" stroke-linejoin="round" stroke-width="7" d="M171 324.12s-.15-3.74 7.61-11.07a16.1 16.1 0 0 0 4.76-10.69 12.36 12.36 0 1 0-24.72 0"/><path stroke="#99e4da" stroke-linecap="round" stroke-linejoin="round" stroke-width="10" d="M170.94 344h.03"/><path stroke="#00bca2" stroke-linecap="round" stroke-linejoin="round" stroke-width="7" d="M246.06 143.67H95.93m75.01 33.09H95.93m150.13 44.61H95.93m75.01 33.09H95.93"/><path fill="#99e4da" d="M330.69 336.75v-222.3h42.05v222.3"/><path fill="#99e4da" d="M330.69 114.45v222.3h21.025v-222.3z" opacity=".5" style="mix-blend-mode:multiply"/><path fill="#ebe6ef" d="m354.54 62.89 18.2 51.56h-42.06l18.2-51.56a2.998 2.998 0 0 1 5.66 0"/><path fill="#ebe6ef" d="m348.88 62.89-18.2 51.56h21.03V60.886a3 3 0 0 0-2.83 2.004" opacity=".5" style="mix-blend-mode:multiply"/><path fill="#00bca2" d="M372.74 336.75v35.37c0 .796-.316 1.559-.879 2.121a3 3 0 0 1-2.121.879h-36.05a3 3 0 0 1-2.121-.879 3 3 0 0 1-.879-2.121v-35.37"/><path fill="#00bca2" d="M331.569 374.241a3 3 0 0 0 2.121.879h18.025v-38.37H330.69v35.37c0 .796.316 1.559.879 2.121" opacity=".5" style="mix-blend-mode:multiply"/><path fill="#99e4da" d="M148.83 28.19h44.34a3 3 0 0 1 3 3v25.69h-50.34V31.19a3 3 0 0 1 3-3"/><path fill="#99e4da" d="M148.83 28.19h44.34a3 3 0 0 1 3 3v25.69h-50.34V31.19a3 3 0 0 1 3-3" opacity=".4" style="mix-blend-mode:multiply"/><path fill="#99e4da" d="M224.71 48.88H117.28a3 3 0 0 0-3 3v31.36a3 3 0 0 0 3 3h107.43a3 3 0 0 0 3-3V51.88a3 3 0 0 0-3-3"/><path fill="#00bca2" d="M362.78 86.24h-22.14l8.24-23.34a2.998 2.998 0 0 1 5.66 0z"/><path fill="#00bca2" d="M351.71 60.896a3 3 0 0 0-2.83 2.004l-8.24 23.34h11.07z" opacity=".5" style="mix-blend-mode:multiply"/><path fill="#ebe6ef" d="M82.58 54.88v320.24h-21a4 4 0 0 1-4-4V58.88a4 4 0 0 1 4-4z" opacity=".5" style="mix-blend-mode:multiply"/><path fill="#99e4da" d="M166.82 28.2a3 3 0 0 0-3 3v17.68h-18V31.2a3 3 0 0 1 3-3zm-31.54 58.04h-18a3 3 0 0 1-3-3V51.88a3 3 0 0 1 3-3h18a3 3 0 0 0-3 3v31.36a3 3 0 0 0 3 3" opacity=".5" style="mix-blend-mode:multiply"/></svg>