<?xml version="1.0" encoding="UTF-8"?>
<svg id="Layer_2" data-name="Layer 2" xmlns="http://www.w3.org/2000/svg" viewBox="0 0 308.99 55.74">
  <defs>
    <style>
      .cls-1 {
        fill: #2d2d2d;
      }

      .cls-2 {
        fill: #1e1e1e;
      }

      .cls-3 {
        fill: #00bca2;
      }
    </style>
  </defs>
  <g id="_레이어_1" data-name="레이어 1">
    <g>
      <g>
        <path class="cls-1" d="M170.96,23.92c-.34,1.14-.72,2.2-1.13,3.18l3.95,4.49c.38.47.78.87,1.18,1.18.4.31.82.61,1.27.91.41.33.7.6.87.82.16.22.29.63.38,1.22l.22,1.78c.09.71.09,1.16,0,1.33s-.34.33-.76.44c-.35.18-.66.22-.91.13-.25-.09-.56-.36-.91-.8l-6.62-8.62c-1.24,2.37-2.55,4.3-3.93,5.8-1.38,1.5-2.55,2.6-3.53,3.31-.18.12-.42.26-.71.42-.3.16-.53.24-.71.24-.35,0-.67-.13-.93-.4-.27-.27-.44-.55-.53-.84-.06-.18-.04-.4.04-.67s.18-.44.27-.53c.83-.65,1.73-1.56,2.71-2.73.98-1.17,1.91-2.52,2.8-4.06.89-1.54,1.67-3.21,2.33-5,.67-1.79,1.1-3.65,1.31-5.57,0-.21-.03-.43-.09-.67-.06-.24-.25-.47-.58-.71l-.93-.62c-.15-.09-.22-.25-.22-.49s.06-.47.18-.71c.09-.24.21-.44.36-.62.15-.18.3-.25.44-.22.27.09.61.19,1.04.31.43.12.87.25,1.31.4.44.18.86.34,1.24.49.38.15.7.27.93.35.33.18.54.5.64.96.1.46.08,1.07-.07,1.84-.27,1.3-.57,2.52-.91,3.66ZM181.73,27.81l-5.24.27c-.36.03-.64,0-.87-.09s-.39-.25-.51-.49l-1.42-2c-.12-.18-.1-.42.04-.73.15-.31.4-.42.76-.33l1.07.27c.21.06.5.1.87.13.37.03.64.04.82.04l4.49-.13v-9.19c0-.62-.12-1.1-.35-1.44-.24-.34-.62-.69-1.15-1.04-.21-.12-.32-.3-.33-.56-.02-.25.04-.5.16-.73.15-.24.33-.42.56-.56.22-.13.48-.14.78-.02l2.93,1.33c.71.33,1.13.62,1.27.89s.2.67.2,1.2v28.51c0,.59-.12,1.17-.36,1.73-.24.56-.52,1.08-.84,1.55-.33.47-.66.9-1,1.27-.34.37-.61.63-.82.78-.21.18-.43.24-.67.2-.24-.04-.36-.17-.36-.38v-20.48ZM190.08,12.44c0-.62-.12-1.1-.36-1.44-.24-.34-.62-.69-1.15-1.04-.21-.12-.32-.3-.33-.55-.02-.25.04-.5.16-.73.15-.24.33-.42.56-.55.22-.13.48-.14.78-.02l2.93,1.33c.71.33,1.13.62,1.27.89s.2.67.2,1.2v33.84c0,.59-.12,1.17-.35,1.73-.24.56-.52,1.08-.84,1.55-.33.47-.66.9-1,1.27-.34.37-.61.63-.82.78-.21.18-.43.24-.67.2-.24-.04-.36-.17-.36-.38V12.44Z"/>
        <path class="cls-1" d="M221.13,46.64c0,.3-.08.64-.24,1.04-.16.4-.35.81-.56,1.22-.21.38-.42.75-.62,1.09-.21.34-.36.57-.44.69-.15.18-.35.3-.6.38-.25.07-.51.1-.78.07-.24-.03-.45-.12-.64-.27-.19-.15-.29-.34-.29-.58v-12.75c0-.8-.1-1.41-.31-1.82-.21-.41-.47-.75-.8-1.02-.06-.03-.11-.07-.16-.11-.04-.04-.07-.1-.07-.16l-12.44.44c-.3.03-.63.05-1,.07-.37.02-.75.02-1.13.02s-.75-.01-1.09-.04c-.34-.03-.61-.07-.82-.13-.27-.06-.46-.21-.58-.44-.12-.24-.13-.53-.04-.89l.49-2.53c.62.15,1.41.26,2.35.33.95.07,1.91.13,2.89.16.95.06,1.81.09,2.6.09h1.62c2.13,0,4.06,0,5.8-.02,1.73-.01,3.34-.05,4.82-.11,1.6-.03,3.02-.07,4.26-.13,1.24-.06,2.38-.12,3.42-.18,1.04-.03,2.04-.08,3-.16.96-.07,1.98-.17,3.04-.29.47-.03.9-.06,1.29-.09.38-.03.74-.04,1.07-.04.3,0,.56.02.78.07.22.04.41.11.56.2l1.82,1.47c.36.33.54.63.56.91.01.28-.05.56-.2.82-.21.38-.41.64-.6.75-.19.12-.39.15-.6.09-.18-.03-.61-.1-1.29-.22-.68-.12-1.26-.21-1.73-.27-.59-.03-1.42-.06-2.49-.09-1.07-.03-2.25-.04-3.55-.04s-2.74.02-4.22.04c-1.48.03-2.93.06-4.35.09.62.42.99.86,1.11,1.33.12.47.18.95.18,1.42v9.59ZM229.52,24.08c0,.53-.1.97-.29,1.31-.19.34-.63.51-1.31.51l-16.21.13c0,.36-.06.67-.18.93-.12.27-.28.49-.49.67-.27.18-.65.31-1.15.4-.5.09-.93.04-1.29-.13-.12-.03-.27-.11-.44-.24-.18-.13-.28-.32-.31-.55-.03-.12-.05-.24-.07-.36-.02-.12-.04-.24-.07-.36,0-.12,0-.24-.02-.36-.02-.12-.02-.24-.02-.36l-.76-11.28-.8-1.55c-.18-.27-.15-.55.09-.87.24-.31.58-.58,1.02-.82.5-.27.95-.38,1.33-.36.38.03.68.15.89.36l1.11,1.29,17.41-.22c.21,0,.44.02.69.07.25.04.44.11.56.2.09.09.16.22.22.4.06.18.09.42.09.71v10.48ZM225.43,16.13c0-.36-.04-.58-.13-.69-.09-.1-.34-.16-.75-.16l-12.44.18c-.47,0-.75.09-.82.27-.07.18-.1.43-.07.75l.35,6.53,12.92-.22c.33,0,.56-.07.71-.22.15-.15.22-.43.22-.84v-5.6Z"/>
        <path class="cls-1" d="M241.02,17.91c0-.71-.04-1.24-.13-1.6s-.33-.64-.71-.84c-.15-.06-.28-.12-.4-.18-.12-.06-.22-.13-.31-.22-.09-.06-.16-.14-.2-.24-.04-.1-.07-.24-.07-.42v-1.42l3.95.36c.98.09,1.55.42,1.71.98.16.56.24,1.24.24,2.04v10.93l8.17-.09c.36,0,.6-.08.73-.24s.2-.45.2-.87v-4l-5.42.13c-.36,0-.62-.03-.8-.09-.18-.06-.34-.22-.49-.49l-1.24-2c-.15-.21-.14-.41.02-.6.16-.19.42-.24.78-.16l1.02.22c.18.06.44.09.78.09h.78l4.57-.09v-3.06c0-.71-.07-1.21-.2-1.51s-.42-.53-.87-.71c-.27-.09-.48-.21-.64-.38-.16-.16-.24-.42-.24-.78v-1.38l4.13.31c.95.09,1.5.45,1.67,1.09.16.64.24,1.35.24,2.15v13.77c0,.53-.15.93-.44,1.2-.3.27-.78.4-1.47.4l-11.28.09c-.03.24-.11.47-.24.71-.13.24-.24.4-.33.49-.24.24-.53.44-.87.6-.34.16-.81.19-1.4.07-.27-.03-.49-.16-.67-.4-.18-.24-.3-.44-.36-.62-.09-.27-.15-.54-.18-.82-.03-.28-.04-.53-.04-.73v-11.68ZM249.28,39.4c0-.71-.04-1.24-.13-1.6-.09-.36-.33-.64-.71-.84-.15-.06-.28-.12-.4-.18-.12-.06-.22-.13-.31-.22-.09-.06-.16-.14-.2-.24-.04-.1-.07-.24-.07-.42v-1.42l3.95.35c.47.06.84.17,1.11.33.27.16.46.38.58.64.12.27.18.58.2.93.01.36.04.73.07,1.11l.13,9.11,12.21-.13c.36,0,.6-.08.73-.24.13-.16.2-.45.2-.87v-3.11l-9.28.18c-.35,0-.62-.03-.8-.09-.18-.06-.34-.22-.49-.49l-1.24-2c-.15-.21-.14-.41.02-.6.16-.19.42-.25.78-.16l1.02.22c.18.06.44.09.78.09h.78l8.44-.13v-1.51c0-.71-.07-1.21-.2-1.51s-.42-.53-.87-.71c-.27-.09-.48-.21-.64-.38-.16-.16-.24-.42-.24-.78v-1.38l4.13.31c.95.09,1.5.45,1.67,1.09.16.64.24,1.35.24,2.15v11.33c0,.53-.15.93-.44,1.2-.3.27-.78.4-1.47.4l-15.28.09v.18c0,.27-.07.52-.2.75-.13.24-.26.41-.38.53-.24.24-.53.43-.87.58-.34.15-.81.18-1.4.09-.27-.03-.49-.16-.67-.4-.18-.24-.3-.44-.36-.62-.09-.27-.15-.54-.18-.82-.03-.28-.04-.53-.04-.73l-.18-10.08ZM267.14,21.95l-4.93.18c-.35.03-.64,0-.87-.09-.22-.09-.39-.25-.51-.49l-1.24-1.96c-.15-.18-.13-.41.04-.71.18-.3.44-.4.8-.31l1.07.27c.21.06.47.1.78.11.31.02.56.02.73.02l4.13-.09v-6.44c0-.62-.12-1.1-.36-1.44-.24-.34-.62-.69-1.15-1.04-.21-.12-.31-.3-.31-.55s.06-.5.18-.73c.15-.24.34-.42.58-.55.24-.13.5-.14.8-.02l3.02,1.33c.71.33,1.13.62,1.27.89s.2.67.2,1.2v14.79c0,.59-.13,1.17-.38,1.73-.25.56-.56,1.08-.91,1.55-.35.47-.71.9-1.07,1.27-.35.37-.64.63-.84.78-.21.18-.43.24-.67.2-.24-.04-.36-.17-.36-.38v-9.5Z"/>
        <path class="cls-1" d="M277.51,19.11c.4-1.09,1-2.04,1.8-2.84.8-.83,1.8-1.49,3-1.98,1.2-.49,2.6-.73,4.2-.73,1.51,0,2.86.24,4.04.73,1.18.49,2.19,1.15,3.02,1.98.8.8,1.41,1.75,1.84,2.84.43,1.1.64,2.24.64,3.42,0,1.3-.23,2.5-.69,3.6-.46,1.1-1.1,2.04-1.93,2.84-.83.8-1.83,1.42-3,1.87-1.17.44-2.48.67-3.93.67-2.99,0-5.34-.85-7.04-2.55-1.7-1.7-2.55-3.84-2.55-6.42,0-1.18.2-2.32.6-3.42ZM282.46,18.35c-.92,1.1-1.38,2.49-1.38,4.17,0,1.78.46,3.19,1.38,4.24.92,1.05,2.27,1.58,4.04,1.58s3.19-.53,4.06-1.58c.87-1.05,1.31-2.47,1.31-4.24s-.44-3.08-1.31-4.17c-.87-1.09-2.23-1.64-4.06-1.64s-3.12.55-4.04,1.64ZM289.12,50.33c-.35,0-.73-.02-1.13-.07-.4-.04-.78-.16-1.13-.33-.33-.18-.6-.44-.82-.78-.22-.34-.33-.82-.33-1.44v-6.57c0-.71-.05-1.26-.16-1.64-.1-.38-.39-.67-.87-.84-.36-.12-.62-.25-.8-.4-.18-.15-.27-.38-.27-.71v-1.69l4.26.53c.5.09.9.23,1.18.42.28.19.48.42.6.69.12.3.19.62.22.98.03.36.04.73.04,1.11v6.22c0,.47.04.83.13,1.07.09.24.41.35.98.35h6.57c1.36,0,2.63-.07,3.82-.22,1.18-.15,2.1-.31,2.75-.49.36-.09.64-.13.87-.13s.53.07.91.22l1.82.71c.65.27,1.03.51,1.13.73.1.22.11.54.02.96-.12.53-.28.89-.49,1.07s-.67.27-1.38.27h-17.94ZM303.69,12.44c0-.62-.12-1.1-.36-1.44-.24-.34-.62-.69-1.15-1.04-.21-.12-.31-.3-.31-.55s.06-.5.18-.73c.15-.24.34-.42.58-.55.24-.13.5-.14.8-.02l3.02,1.33c.71.33,1.13.62,1.27.89.13.27.2.67.2,1.2v23.9c0,.59-.13,1.17-.38,1.73-.25.56-.56,1.08-.91,1.55-.36.47-.71.9-1.07,1.27-.36.37-.64.63-.84.78-.21.18-.43.24-.67.2-.24-.04-.35-.17-.35-.38V12.44Z"/>
      </g>
      <g>
        <path class="cls-2" d="M60.61,46.75c-.37.04-.79.06-1.25.08-.46.02-.94.03-1.42.03s-.94-.02-1.36-.06c-.43-.04-.77-.09-1.03-.17-.33-.08-.58-.26-.72-.56-.15-.3-.17-.67-.06-1.11l.61-3.17c.78.19,1.76.33,2.95.42,1.19.09,2.39.16,3.61.2,1.19.07,2.27.11,3.25.11h7.31c1.63,0,3.17-.02,4.62-.06v-2.22c0-.74-.08-1.26-.25-1.56-.17-.3-.6-.56-1.31-.78-.33-.07-.62-.27-.86-.58-.24-.31-.32-.71-.25-1.2l.17-1.67,5.67.56c.96.11,1.55.41,1.75.89.2.48.31.89.31,1.22v5.17c1.71-.04,3.23-.08,4.59-.14,1.35-.05,2.62-.12,3.81-.19,1.19-.04,2.34-.1,3.45-.19,1.11-.09,2.28-.21,3.5-.36.59-.04,1.14-.08,1.64-.14s.94-.08,1.31-.08.69.03.97.08c.28.06.51.16.69.31l2.28,1.83c.44.41.68.79.7,1.14.02.35-.07.7-.25,1.03-.26.48-.51.8-.75.95-.24.15-.49.18-.75.11-.22-.04-.76-.13-1.61-.28-.85-.15-1.58-.26-2.17-.33-.78-.04-1.87-.07-3.28-.11-1.41-.04-2.98-.06-4.73-.06s-3.65.02-5.62.06c-1.97.04-3.87.07-5.73.11l-19.8.72ZM70.78,11.6c-.44,0-.92,0-1.42.03-.5.02-.95.03-1.36.03-.41.04-.96.06-1.67.08-.7.02-1.22-.05-1.56-.19-.44-.19-.78-.46-1-.83-.22-.37-.3-.72-.22-1.06l.5-2.5c1.85.33,3.53.54,5.03.61,1.5.08,2.98.11,4.42.11,1.33,0,2.69,0,4.06-.03,1.37-.02,2.74-.05,4.12-.08,1.33-.04,2.69-.07,4.06-.11,1.37-.04,2.74-.07,4.12-.11.41,0,.81.04,1.2.11.39.08.69.22.92.45.15.19.3.41.44.67.15.26.22.63.22,1.11v9.84c0,.82-.26,1.43-.78,1.83-.52.41-1.37.61-2.56.61l-18.85.22v5.95c0,.52.09.87.28,1.06.19.19.56.28,1.11.28h9.9c1.45,0,2.86-.08,4.25-.25,1.39-.17,2.46-.36,3.2-.58.41-.11.8-.16,1.17-.14.37.02.78.1,1.22.25l1.95.78c.78.33,1.27.62,1.47.86.2.24.25.7.14,1.36-.15.67-.37,1.09-.67,1.28-.3.19-.87.28-1.72.28h-21.97c-.52,0-1.09-.04-1.72-.11-.63-.07-1.22-.24-1.78-.5-.56-.26-1.02-.64-1.39-1.14-.37-.5-.56-1.18-.56-2.03v-5.73c0-.56-.03-.99-.08-1.31-.06-.31-.21-.53-.47-.64-.52-.22-.94-.51-1.25-.86-.32-.35-.47-.77-.47-1.25v-1.67l4.17.33.11.06h.17l19.3-.33c.3,0,.49-.06.58-.19.09-.13.14-.36.14-.7v-5.34c0-.26-.05-.44-.14-.56-.09-.11-.31-.17-.64-.17l-15.96.22Z"/>
        <path class="cls-2" d="M142.19,50.2c0,.67-.13,1.21-.39,1.64-.26.43-.83.64-1.72.64l-20.13.06c0,.45-.04.81-.11,1.08-.07.28-.22.53-.44.75-.41.45-.97.72-1.7.83-.72.11-1.36-.06-1.92-.5-.15-.11-.31-.3-.47-.56-.17-.26-.27-.54-.31-.83l-.22-1.78-1.06-12.12-1-1.84c-.19-.33-.17-.68.06-1.03.22-.35.67-.73,1.33-1.14.63-.37,1.2-.54,1.7-.5s.9.2,1.2.5l1.33,1.5,7.23-.11v-5.23c0-.67-.06-1.21-.17-1.64-.11-.43-.26-.79-.44-1.08l-16.52.61c-.37.04-.79.07-1.25.08-.46.02-.94.03-1.42.03s-.94-.02-1.36-.06c-.43-.04-.77-.09-1.03-.17-.33-.07-.58-.26-.72-.56-.15-.3-.17-.67-.06-1.11l.61-3.17c.78.19,1.76.32,2.95.42,1.19.09,2.39.16,3.61.19,1.19.08,2.27.11,3.25.11h2.03c2.67,0,5.09,0,7.26-.03,2.17-.02,4.18-.06,6.03-.14,2-.04,3.78-.09,5.34-.17,1.56-.07,2.98-.15,4.28-.22,1.3-.04,2.55-.1,3.75-.19,1.2-.09,2.48-.21,3.81-.36.59-.04,1.13-.07,1.61-.11.48-.04.93-.06,1.33-.06.37,0,.69.03.97.08.28.05.51.14.69.25l2.28,1.83c.44.41.68.79.7,1.14.02.35-.07.69-.25,1.03-.26.48-.51.8-.75.95-.24.15-.49.19-.75.11-.22-.04-.76-.13-1.61-.28-.85-.15-1.58-.26-2.17-.33-.7-.04-1.68-.07-2.92-.11-1.24-.04-2.62-.06-4.14-.06s-3.22,0-4.98.03c-1.76.02-3.5.05-5.2.08.22.37.35.75.39,1.14.04.39.06.77.06,1.14v2.67c0,.45-.12.95-.36,1.5-.24.56-.51,1.09-.81,1.61l10.51-.17c.3,0,.6.03.92.08.31.06.56.14.75.25.11.11.2.28.28.5.07.22.11.54.11.95v11.84ZM119.08,4.65c2.17-1.85,5.05-2.78,8.65-2.78,1.7,0,3.28.25,4.73.75,1.45.5,2.71,1.18,3.78,2.03,1.04.89,1.85,1.93,2.45,3.11.59,1.19.89,2.48.89,3.89,0,1.48-.31,2.83-.92,4.03-.61,1.21-1.46,2.23-2.53,3.09-1.04.89-2.28,1.57-3.73,2.03-1.45.46-3,.69-4.67.69-3.6,0-6.48-.91-8.65-2.72-2.17-1.82-3.25-4.19-3.25-7.12s1.08-5.15,3.25-7.01ZM136.91,41.69c0-.48-.06-.78-.17-.89-.11-.11-.45-.17-1-.17l-15.4.17c-.33,0-.58.04-.72.11-.15.08-.26.17-.33.28-.07.11-.11.24-.11.39s.02.32.06.5l.44,6.51,16.02-.22c.41,0,.71-.1.92-.31.2-.2.31-.57.31-1.08v-5.28ZM122.81,7.4c-1.17,1.06-1.75,2.47-1.75,4.25s.61,3.16,1.84,4.25c1.22,1.09,2.84,1.64,4.84,1.64s3.7-.55,4.87-1.64c1.17-1.09,1.75-2.51,1.75-4.25s-.58-3.2-1.75-4.25c-1.17-1.06-2.79-1.58-4.87-1.58s-3.75.53-4.92,1.58Z"/>
      </g>
      <g>
        <path class="cls-3" d="M18.47,13.06c.12.05.19.15.22.29.03.14.04.35.04.6v2.64c0,.39.09.7.26.93.17.23.38.41.64.52.26.12.53.2.82.23.29.03.55.05.79.05h10.11c.39,0,.66-.04.79-.13.14-.08.24-.28.31-.59.05-.31.03-.52-.06-.63-.09-.11-.32-.24-.68-.4l-.9-.36c-.2-.07-.39-.11-.56-.12-.17,0-.35.01-.54.06-.34.1-.83.19-1.47.27-.64.08-1.29.12-1.96.12h-4.56c-.26,0-.43-.04-.51-.13-.09-.08-.13-.25-.13-.49v-2.74l8.68-.1c.55,0,.94-.09,1.18-.28.24-.19.36-.47.36-.84v-4.53c0-.22-.03-.39-.1-.51-.07-.12-.14-.22-.2-.31-.1-.1-.24-.17-.42-.2-.18-.03-.36-.05-.55-.05-.63.02-1.26.03-1.89.05-.63.02-1.25.03-1.87.05-.63.02-1.26.03-1.89.04-.63,0-1.25.01-1.87.01-.67,0-1.34-.02-2.03-.05-.69-.03-1.46-.13-2.32-.28l-.23,1.15c-.03.15,0,.32.1.49.1.17.26.3.46.38.15.07.39.1.72.09.32,0,.58-.02.77-.04.19,0,.4,0,.63-.01.23,0,.45-.01.65-.01l7.35-.1c.15,0,.25.03.29.08.04.05.06.14.06.26v2.46c0,.15-.02.26-.06.32-.04.06-.13.09-.27.09l-8.88.15h-.08l-.05-.03-1.92-.15v.77c0,.22.07.41.22.58.14.16.34.29.58.4Z"/>
        <path class="cls-3" d="M21.46,33.51c1,.84,2.32,1.25,3.98,1.25.77,0,1.48-.11,2.15-.32.67-.21,1.24-.52,1.71-.93.49-.39.88-.87,1.16-1.42.28-.55.42-1.17.42-1.86s-.14-1.25-.41-1.79c-.27-.55-.65-1.02-1.13-1.43-.5-.39-1.08-.7-1.74-.93-.67-.23-1.39-.35-2.18-.35-1.66,0-2.98.43-3.98,1.28-1,.85-1.5,1.93-1.5,3.22s.5,2.44,1.5,3.28ZM23.17,28.28c.54-.49,1.29-.73,2.26-.73s1.7.24,2.24.73c.54.49.81,1.14.81,1.96s-.27,1.45-.81,1.96c-.54.5-1.28.75-2.24.75s-1.66-.25-2.23-.75c-.56-.5-.84-1.16-.84-1.96s.27-1.47.81-1.96Z"/>
        <path class="cls-3" d="M41.86,27.55c4.54-1.87,7.75-6.35,7.75-11.56,0-.52-.42-.94-.94-.94-5.02,0-9.36,2.98-11.34,7.26v-10.36c0-6.59-5.36-11.95-11.95-11.95h-.93c-6.59,0-11.95,5.36-11.95,11.95v10.85c-1.87-4.54-6.35-7.75-11.56-7.75-.52,0-.94.42-.94.94,0,5.21,3.21,9.69,7.75,11.56-4.54,1.87-7.75,6.35-7.75,11.56,0,.52.42.94.94.94,5.21,0,9.69-3.21,11.56-7.75v11.5c0,6.59,5.36,11.95,11.95,11.95h.93c6.59,0,11.95-5.36,11.95-11.95v-11.01c1.98,4.28,6.32,7.26,11.34,7.26.52,0,.94-.42.94-.94,0-5.21-3.21-9.69-7.75-11.56ZM14.67,24.45s.02,0,.03,0c.2.02.41.03.63.03s.44,0,.65-.01c.21,0,.41-.02.58-.04l9.11-.33c.85-.02,1.73-.03,2.64-.05.9-.02,1.77-.03,2.58-.03s1.53,0,2.18.03c.65.02,1.15.03,1.51.05.17.02.37.05.59.09v11.72c-.06,0-.11,0-.18,0-.19,0-.39,0-.61.03-.22.02-.47.03-.74.05-.61.07-1.2.12-1.75.17-.55.04-1.13.07-1.73.09-.6.03-1.25.07-1.97.1-.72.03-1.54.06-2.46.08-.85.03-1.78.06-2.78.06-1,0-2.11.01-3.34.01h-.93c-.45,0-.95-.02-1.5-.05-.56-.02-1.12-.05-1.66-.09-.31-.02-.58-.06-.83-.09v-11.8ZM47.7,16.97c-.42,4.52-3.68,8.23-7.98,9.31l3.49-3.49c.37-.37.37-.96,0-1.33s-.96-.37-1.33,0l-3.49,3.49c1.08-4.3,4.79-7.57,9.31-7.98ZM24.45,2.18h.93c5.39,0,9.77,4.39,9.77,9.78v9.92c-.06,0-.11,0-.18,0-.17,0-.37.01-.6.04-.23.03-.48.05-.75.06-.56.07-1.1.12-1.61.17-.51.04-1.04.07-1.59.09-.55.03-1.13.06-1.75.09-.62.03-1.33.05-2.11.06v-2.38c0-.15-.05-.34-.14-.56-.09-.22-.36-.36-.81-.41l-2.61-.26-.08.77c-.03.22,0,.41.12.55.11.14.24.23.4.27.32.1.52.22.6.36.08.14.12.38.12.72v1.02c-.67.02-1.37.03-2.12.03h-3.37c-.45,0-.95-.02-1.5-.05-.56-.02-1.12-.05-1.66-.09-.31-.02-.58-.06-.83-.09v-10.29c0-5.39,4.39-9.78,9.77-9.78ZM1.92,16.97c4.52.42,8.23,3.68,9.31,7.98l-3.49-3.49c-.37-.37-.96-.37-1.33,0-.37.37-.37.96,0,1.33l3.49,3.49c-4.3-1.08-7.57-4.79-7.98-9.31ZM1.92,38.12c.42-4.52,3.68-8.23,7.98-9.31l-3.49,3.49c-.37.37-.37.96,0,1.33.18.18.42.27.66.27s.48-.09.66-.27l3.49-3.49c-1.08,4.3-4.79,7.57-9.31,7.98ZM25.38,53.57h-.93c-5.39,0-9.77-4.39-9.77-9.78v-5.35s.02,0,.03,0c.2.02.41.03.63.03s.44,0,.65-.01c.21,0,.41-.02.58-.04l7.6-.28c.09.14.15.3.2.5.05.2.08.45.08.76v2.41l-3.33.05-.61-.69c-.14-.14-.32-.21-.55-.23-.23-.02-.49.06-.78.23-.31.19-.51.36-.61.52-.1.16-.11.32-.03.47l.46.84.49,5.58.1.82c.02.14.06.26.14.38.08.12.15.2.22.26.26.2.55.28.88.23.33-.05.59-.18.78-.38.1-.1.17-.22.2-.35.03-.13.05-.29.05-.5l9.26-.03c.41,0,.67-.1.79-.29.12-.2.18-.45.18-.75v-5.45c0-.19-.02-.33-.05-.44-.03-.1-.08-.18-.13-.23-.09-.05-.2-.09-.35-.12-.15-.03-.29-.04-.42-.04l-4.84.08c.14-.24.26-.49.37-.74.11-.26.17-.49.17-.69v-1.23c0-.17,0-.35-.03-.52-.02-.18-.08-.35-.18-.52.78-.02,1.58-.03,2.39-.04.81,0,1.57-.01,2.29-.01s1.33,0,1.91.03c.57.02,1.02.03,1.34.05.17.02.37.05.59.09v5.61c0,5.39-4.39,9.78-9.77,9.78ZM29.12,43.57c.26,0,.41.03.46.08.05.05.08.19.08.41v2.43c0,.24-.05.41-.14.5-.09.09-.23.14-.42.14l-7.37.1-.2-2.99c-.02-.08-.03-.16-.03-.23s.02-.13.05-.18c.03-.05.09-.09.15-.13.07-.03.18-.05.33-.05l7.09-.08ZM38.39,30.14l3.49,3.49c.18.18.42.27.66.27s.48-.09.66-.27c.37-.37.37-.96,0-1.33l-3.49-3.49c4.3,1.08,7.57,4.79,7.98,9.31-4.52-.42-8.23-3.69-9.31-7.98Z"/>
      </g>
    </g>
  </g>
</svg>